<?xml version="1.0" standalone="no"?><!DOCTYPE svg PUBLIC "-//W3C//DTD SVG 1.1//EN" "http://www.w3.org/Graphics/SVG/1.1/DTD/svg11.dtd"><svg t="1510657977741" class="icon" style="" viewBox="0 0 1024 1024" version="1.1" xmlns="http://www.w3.org/2000/svg" p-id="653" xmlns:xlink="http://www.w3.org/1999/xlink" width="200" height="200"><defs><style type="text/css"></style></defs><path d="M983.527439 423.044768l28.415194-125.613646-156.504619 73.300751 62.240127 81.202345-214.854237 94.304684-126.698809-99.441122 59.217747-100.646859-123.338823-209.653492-123.346861 209.653492 59.217747 100.646859-126.698809 99.425046-214.846198-94.288608 62.232088-81.202345L12.057367 297.431122l28.415194 125.613646-0.120574-0.064306 28.045435 123.957768 65.471501 340.564341h756.246077l65.43131-340.307118 28.101703-124.214991z" fill="#FFF80D" p-id="654"></path><path d="M997.385373 361.761192l-109.505005 51.300076 29.797773 38.87295v57.521678L702.823904 603.76058 576.125095 504.319457v-57.521677l42.297243-71.88602-106.418319-180.892653-106.426357 180.892653 42.297243 71.88602v57.521677L321.176096 603.752541 106.329898 509.455896v-57.521678l29.789734-38.87295-109.496966-51.300076 13.849895 61.283576-0.120574-0.064306 28.045435 123.957768 65.471501 340.564341h756.246077l65.43131-340.307118 28.101703-124.214991-0.120574 0.064306z" fill="#FFD00B" p-id="655"></path><path d="M511.995981 696.007473m-126.481777 0a126.481777 126.481777 0 1 0 252.963553 0 126.481777 126.481777 0 1 0-252.963553 0Z" fill="#FFAF10" p-id="656"></path><path d="M638.485796 696.007473c0 53.518632-56.63747 96.892999-126.489815 96.892999-69.844306 0-126.473738-43.374367-126.473738-96.892999 0-53.462364 56.629432-96.892999 126.473738-96.892999 69.852344 0 126.489815 43.430635 126.489815 96.892999z" fill="#FF860D" p-id="657"></path><path d="M385.514204 696.007473c0 69.860383 56.629432 126.497853 126.473739 126.497853 69.852344 0 126.489815-56.63747 126.489814-126.497853H385.514204z" fill="#FFF9DE" p-id="658"></path><path d="M511.987943 792.900472c69.852344 0 126.489815-43.374367 126.489814-96.892999H385.514204c0 53.518632 56.629432 96.892999 126.473739 96.892999z" fill="#FFF3C2" p-id="659"></path><path d="M1019.498583 288.042452a12.073443 12.073443 0 0 0-12.676311-1.527266l-156.496582 73.300751a12.04129 12.04129 0 0 0-4.453187 18.254853l52.891648 69.00029-194.179871 85.229506-112.720302-88.476956 53.872314-91.563643a12.057367 12.057367 0 0 0 0-12.22617L522.397469 130.380325a12.065405 12.065405 0 0 0-20.7869 0L378.263708 340.033817a12.057367 12.057367 0 0 0 0 12.22617l53.872314 91.563643-112.72834 88.46088-194.163795-85.21343 52.88361-69.00029a12.04129 12.04129 0 0 0-4.453187-18.254853L17.177728 286.515186a12.04129 12.04129 0 0 0-16.872275 13.584633l28.037397 123.949729c0.048229 0.530524 0.13665 1.069087 0.249186 1.599611l27.965052 123.571932 65.479539 340.564341a12.057367 12.057367 0 0 0 11.840334 9.782544h756.246078a12.057367 12.057367 0 0 0 11.840334-9.782544l65.350927-339.921281 28.101703-124.214992c0.120574-0.530524 0.200956-1.069087 0.249185-1.599611l28.037397-123.949729a12.057367 12.057367 0 0 0-4.204002-12.057367zM625.777331 708.06484c-6.04476 57.457371-54.76456 102.38312-113.789388 102.383119-59.016791 0-107.728552-44.925748-113.773312-102.383119h227.5627z m-227.554662-24.114734c6.04476-57.449333 54.756521-102.367043 113.773312-102.367043 59.024829 0 107.73659 44.925748 113.789388 102.367043h-227.5627z m573.544818-263.565997a12.218132 12.218132 0 0 0-0.249185 1.583534l-27.804288 122.952987-63.55036 330.524574H524.053348v-41.493418c70.752628-6.141219 126.481777-65.61619 126.481776-137.944313 0-76.395475-62.151706-138.539143-138.547181-138.539143-76.387437 0-138.531105 62.143668-138.531105 138.539143 0 72.336162 55.729149 131.811133 126.481776 137.944313v41.493418H143.836346L80.157374 544.277571 52.481698 421.983719a13.761475 13.761475 0 0 0-0.249185-1.59961L29.25921 318.796775l120.613858 56.492782-53.108681 69.305744a12.073443 12.073443 0 0 0 4.726488 18.375427l214.854236 94.296646a12.073443 12.073443 0 0 0 12.282437-1.55942l126.698809-99.425045a12.057367 12.057367 0 0 0 2.950036-15.602233l-55.624652-94.537793 109.360316-185.876365L621.356297 346.150921l-55.624652 94.537793a12.057367 12.057367 0 0 0 2.950036 15.602233l126.698809 99.441122a12.057367 12.057367 0 0 0 12.282438 1.551381l214.854236-94.304684a12.057367 12.057367 0 0 0 4.726487-18.375427l-53.116719-69.305743 120.613858-56.492782-22.973303 101.579295z" fill="#33363A" p-id="660"></path><path d="M351.769654 834.562693h-18.938104a12.057367 12.057367 0 0 1 0-24.114734h18.938104a12.057367 12.057367 0 0 1 0 24.114734zM293.299464 834.562693h-18.946142a12.057367 12.057367 0 0 1 0-24.114734h18.946142a12.057367 12.057367 0 0 1 0 24.114734zM234.829274 834.562693H126.449624a12.057367 12.057367 0 0 1 0-24.114734h108.37965a12.057367 12.057367 0 0 1 0 24.114734zM387.081662 834.570731c-3.142954 0-6.269831-1.286119-8.528577-3.536828a12.202055 12.202055 0 0 1-3.52879-8.520539c0-3.215298 1.286119-6.269831 3.52879-8.528577 4.509455-4.501417 12.5477-4.501417 17.041078 0 2.250708 2.250708 3.536828 5.393662 3.536827 8.528577s-1.286119 6.269831-3.536827 8.520539c-2.234632 2.250708-5.297203 3.536828-8.512501 3.536828zM691.176488 834.562693H672.238384a12.057367 12.057367 0 0 1 0-24.114734h18.938104a12.057367 12.057367 0 0 1 0 24.114734zM749.646678 834.562693h-18.946142a12.057367 12.057367 0 0 1 0-24.114734h18.946142a12.057367 12.057367 0 0 1 0 24.114734zM897.550376 834.562693H789.170726a12.057367 12.057367 0 0 1 0-24.114734h108.37965a12.057367 12.057367 0 0 1 0 24.114734zM636.918338 834.570731c-3.142954 0-6.269831-1.286119-8.528577-3.536828a12.202055 12.202055 0 0 1-3.52879-8.520539c0-3.215298 1.286119-6.269831 3.52879-8.528577 4.509455-4.501417 12.5477-4.501417 17.041078 0 2.250708 2.250708 3.536828 5.393662 3.536827 8.528577s-1.286119 6.269831-3.536827 8.520539-5.385624 3.536828-8.512501 3.536828z" fill="#33363A" p-id="661"></path><path d="M511.995981 710.508466m-41.814948 0a41.814948 41.814948 0 1 0 83.629896 0 41.814948 41.814948 0 1 0-83.629896 0Z" fill="#A7BBC1" p-id="662"></path><path d="M511.995981 696.280773m-41.814948 0a41.814948 41.814948 0 1 0 83.629896 0 41.814948 41.814948 0 1 0-83.629896 0Z" fill="#FFFFFF" p-id="663"></path><path d="M482.42328 725.845436a41.814948 41.814948 0 1 1 59.145402-59.129326" fill="#D8E5EA" p-id="664"></path><path d="M511.995981 750.161126a53.494517 53.494517 0 0 1-38.101279-15.79515c-10.176417-10.168379-15.779074-23.688706-15.779074-38.085203s5.602656-27.932899 15.779074-38.09324c21.003933-21.003933 55.190586-20.995895 76.194519-0.008038a53.502555 53.502555 0 0 1 15.787112 38.109317 53.438249 53.438249 0 0 1-15.79515 38.085202 53.462364 53.462364 0 0 1-38.085202 15.787112z m0-83.621857c-7.620256 0-15.24855 2.893768-21.052162 8.69738-5.618733 5.618733-8.713457 13.0943-8.713457 21.044124s3.094724 15.425391 8.713457 21.028048c11.253542 11.269619 30.866859 11.26158 42.088248 0.008038 5.626771-5.618733 8.729533-13.086262 8.729533-21.036086s-3.094724-15.425391-8.721495-21.036085v-0.008039a29.628969 29.628969 0 0 0-21.044124-8.69738z" fill="#33363A" p-id="665"></path></svg>