<?xml version="1.0" standalone="no"?><!DOCTYPE svg PUBLIC "-//W3C//DTD SVG 1.1//EN" "http://www.w3.org/Graphics/SVG/1.1/DTD/svg11.dtd"><svg t="1521983787109" class="icon" style="" viewBox="0 0 1024 1024" version="1.1" xmlns="http://www.w3.org/2000/svg" p-id="4975" xmlns:xlink="http://www.w3.org/1999/xlink" width="200" height="200"><defs><style type="text/css"></style></defs><path d="M511.964 872.768295L192.574624 992.106062V210.351589h319.389376z" fill="#CEE8FA" p-id="4976"></path><path d="M192.576624 1023.998a31.885938 31.885938 0 0 1-31.895938-31.893938V210.351589c0-17.611966 14.281972-31.891938 31.891938-31.891938h319.389376c17.611966 0 31.891938 14.281972 31.891938 31.891938v662.414706a31.889938 31.889938 0 0 1-20.72996 29.873942l-319.389376 119.339767A31.865938 31.865938 0 0 1 192.576624 1023.998z m31.889938-781.754473v703.896625l255.6035-95.501813V242.243527H224.466562z" fill="#2D527C" p-id="4977"></path><path d="M831.419376 1023.998c-3.759993 0-7.539985-0.663999-11.159978-2.017996l-319.385376-119.339767a31.889938 31.889938 0 0 1-20.72996-29.873942V210.351589c0-17.611966 14.281972-31.891938 31.891938-31.891938h147.729711c17.611966 0 31.891938 14.281972 31.891938 31.891938 0 17.611966-14.281972 31.891938-31.891938 31.891938h-115.837773V850.638339l255.6035 95.501813v-550.538925c0-17.611966 14.281972-31.891938 31.891938-31.891937s31.891938 14.281972 31.891938 31.891937v596.504835A31.895938 31.895938 0 0 1 831.419376 1023.998z" fill="#2D527C" p-id="4978"></path><path d="M831.423376 240.983529c-17.611966 0-31.891938-14.281972-31.891938-31.891937V93.409818c0-16.335968-13.289974-29.625942-29.625942-29.625943H254.092504c-16.335968 0-29.625942 13.289974-29.625942 29.625943v115.677774c0 17.611966-14.281972 31.891938-31.891938 31.891937s-31.893938-14.279972-31.893938-31.891937V93.409818C160.680686 41.903918 202.584604 0 254.092504 0h515.812992c51.505899 0 93.409818 41.903918 93.409818 93.409818v115.677774c0 17.615966-14.277972 31.895938-31.891938 31.895937z" fill="#2D527C" p-id="4979"></path></svg>