<?xml version="1.0" standalone="no"?><!DOCTYPE svg PUBLIC "-//W3C//DTD SVG 1.1//EN" "http://www.w3.org/Graphics/SVG/1.1/DTD/svg11.dtd"><svg t="1528033558315" class="icon" style="" viewBox="0 0 1024 1024" version="1.1" xmlns="http://www.w3.org/2000/svg" p-id="22143" xmlns:xlink="http://www.w3.org/1999/xlink" width="200" height="200"><defs><style type="text/css"></style></defs><path d="M512 512m-446.689 0a446.689 446.689 0 1 0 893.378 0 446.689 446.689 0 1 0-893.378 0Z" fill="#CFDAE6" p-id="22144"></path><path d="M590.964 512L709.41 393.554c21.806-21.806 21.806-57.159 0-78.965-21.805-21.805-57.159-21.805-78.964 0L512 433.036 393.554 314.589c-21.805-21.805-57.159-21.805-78.964 0-21.805 21.806-21.805 57.159 0 78.965L433.036 512 314.589 630.446c-21.805 21.805-21.805 57.159 0 78.964s57.159 21.805 78.964 0L512 590.964 630.446 709.41c21.805 21.805 57.159 21.805 78.964 0 21.806-21.805 21.806-57.159 0-78.964L590.964 512z" fill="#FFFFFF" p-id="22145"></path></svg>