<?xml version="1.0" standalone="no"?><!DOCTYPE svg PUBLIC "-//W3C//DTD SVG 1.1//EN" "http://www.w3.org/Graphics/SVG/1.1/DTD/svg11.dtd"><svg t="1510657966908" class="icon" style="" viewBox="0 0 1024 1024" version="1.1" xmlns="http://www.w3.org/2000/svg" p-id="537" xmlns:xlink="http://www.w3.org/1999/xlink" width="200" height="200"><defs><style type="text/css"></style></defs><path d="M930.909091 221.090909c-44.218182 0-81.454545 37.236364-81.454546 81.454546 0 11.636364 2.327273 20.945455 6.981819 30.254545l-46.545455 37.236364-11.636364-109.381819c30.254545-11.636364 51.2-41.890909 51.2-74.472727 0-44.218182-37.236364-81.454545-81.454545-81.454545S686.545455 141.963636 686.545455 186.181818c0 13.963636 4.654545 27.927273 11.636363 39.563637L619.054545 302.545455 558.545455 148.945455c20.945455-13.963636 34.909091-39.563636 34.90909-67.49091C593.454545 37.236364 556.218182 0 512 0s-81.454545 37.236364-81.454545 81.454545c0 27.927273 13.963636 51.2 34.90909 67.49091L404.945455 302.545455 325.818182 223.418182c6.981818-11.636364 11.636364-25.6 11.636363-39.563637 0-44.218182-37.236364-81.454545-81.454545-81.454545S174.545455 139.636364 174.545455 183.854545c0 34.909091 20.945455 62.836364 51.2 74.472728L214.109091 372.363636l-44.218182-37.236363c4.654545-9.309091 4.654545-18.618182 4.654546-30.254546C174.545455 260.654545 139.636364 223.418182 93.090909 223.418182S11.636364 260.654545 11.636364 304.872727s34.909091 79.127273 76.8 81.454546L186.181818 795.927273c2.327273 11.636364 11.636364 18.618182 23.272727 18.618182h628.363637c11.636364 0 20.945455-6.981818 23.272727-18.618182l79.127273-411.927273c41.890909-4.654545 72.145455-39.563636 72.145454-81.454545 0-44.218182-37.236364-81.454545-81.454545-81.454546z m-162.909091-69.818182c18.618182 0 34.909091 16.290909 34.909091 34.909091s-13.963636 34.909091-34.909091 34.909091-34.909091-16.290909-34.909091-34.909091 16.290909-34.909091 34.909091-34.909091z m-37.236364 107.054546c2.327273 0 4.654545 2.327273 4.654546 2.327272 2.327273 0 2.327273 0 4.654545 2.327273 4.654545 2.327273 9.309091 2.327273 13.963637 4.654546l13.963636 141.963636-81.454545 67.490909-48.872728-128 93.090909-90.763636zM512 46.545455c18.618182 0 34.909091 16.290909 34.909091 34.90909 0 16.290909-9.309091 27.927273-23.272727 32.581819-2.327273 0-2.327273 0-4.654546 2.327272h-9.309091c-2.327273 0-2.327273 0-4.654545-2.327272-13.963636-4.654545-23.272727-18.618182-23.272727-32.581819-4.654545-18.618182 11.636364-34.909091 30.254545-34.90909zM256 148.945455c18.618182 0 34.909091 16.290909 34.909091 34.90909 0 9.309091-4.654545 18.618182-11.636364 25.6-6.981818 6.981818-13.963636 9.309091-23.272727 9.309091h-2.327273c-18.618182-2.327273-32.581818-16.290909-32.581818-34.909091s13.963636-34.909091 34.909091-34.90909z m16.290909 114.036363c4.654545 0 9.309091-2.327273 13.963636-4.654545 2.327273 0 2.327273-2.327273 4.654546-2.327273 0 0 2.327273 0 2.327273-2.327273l95.418181 95.418182-48.872727 123.345455-81.454545-67.490909 13.963636-141.963637z m-214.109091 41.890909c0-18.618182 16.290909-34.909091 34.909091-34.909091s34.909091 16.290909 34.909091 34.909091c0 6.981818-2.327273 13.963636-6.981818 20.945455-4.654545 6.981818-11.636364 11.636364-18.618182 11.636363h-6.981818c-20.945455 2.327273-37.236364-13.963636-37.236364-32.581818zM228.072727 768l-11.636363-46.545455h609.745454l-9.309091 46.545455H228.072727z m607.418182-93.090909H209.454545v16.290909L134.981818 374.690909s2.327273 0 2.327273-2.327273H139.636364l193.163636 158.254546c4.654545 4.654545 13.963636 6.981818 20.945455 4.654545 6.981818-2.327273 13.963636-6.981818 16.290909-13.963636l139.636363-358.4h4.654546l139.636363 358.4c2.327273 6.981818 9.309091 11.636364 16.290909 13.963636 6.981818 2.327273 13.963636 0 20.945455-4.654545l195.490909-160.581818c2.327273 0 2.327273 2.327273 4.654546 2.327272s2.327273 2.327273 4.654545 2.327273L835.490909 674.909091zM930.909091 337.454545h-6.981818c-6.981818-2.327273-16.290909-6.981818-20.945455-11.636363-4.654545-6.981818-6.981818-13.963636-6.981818-20.945455 0-18.618182 16.290909-34.909091 34.909091-34.909091s34.909091 16.290909 34.909091 34.909091-16.290909 32.581818-34.909091 32.581818zM837.818182 1000.727273c13.963636 0 23.272727-9.309091 23.272727-23.272728v-93.090909c0-13.963636-9.309091-23.272727-23.272727-23.272727H209.454545c-13.963636 0-23.272727 9.309091-23.272727 23.272727v93.090909c0 13.963636 9.309091 23.272727 23.272727 23.272728h628.363637z m-605.090909-93.090909h581.818182v46.545454H232.727273v-46.545454z" p-id="538"></path></svg>