<?xml version="1.0" standalone="no"?><!DOCTYPE svg PUBLIC "-//W3C//DTD SVG 1.1//EN" "http://www.w3.org/Graphics/SVG/1.1/DTD/svg11.dtd"><svg class="icon" width="200px" height="200.00px" viewBox="0 0 1024 1024" version="1.1" xmlns="http://www.w3.org/2000/svg"><path d="M511.999 1024c-69.103 0-136.159-13.543-199.306-40.253-60.976-25.791-115.726-62.703-162.732-109.71-47.007-47.007-83.919-101.758-109.709-162.732C13.543 648.158 0 581.101 0 511.999c0-69.1 13.543-136.156 40.252-199.306 25.789-60.973 62.701-115.725 109.709-162.732 47.008-47.008 101.759-83.92 162.732-109.71C375.841 13.543 442.897 0 511.999 0c69.1 0 136.156 13.543 199.306 40.251 60.974 25.79 115.725 62.702 162.732 109.71 47.006 47.004 83.918 101.755 109.71 162.732 26.71 63.148 40.252 130.204 40.252 199.306s-13.542 136.158-40.252 199.307c-25.792 60.977-62.704 115.728-109.711 162.732-47.005 47.006-101.756 83.918-162.731 109.709C648.16 1010.457 581.103 1024 511.999 1024z" fill="#FFFFFF" /><path d="M512.16 62.689c-247.955 0-449.681 201.726-449.681 449.681S264.205 962.052 512.16 962.052 961.841 760.326 961.841 512.37 760.114 62.689 512.16 62.689z" fill="#F5C607" /><path d="M285.491 776.348l18.484 29.137 42.683 21.108 16.412-110.799zM365.063 714.239l-1.993 1.555-16.412 110.799 31.8 15.726 22.553-152.257z" fill="#F5A107" /><path d="M401.011 690.062l-22.553 152.257 31.8 15.727 28.66-193.476z" fill="#F4A207" /><path d="M438.918 664.57l-28.66 193.476 31.801 15.726 34.765-234.695z" fill="#F3A207" /><path d="M476.824 639.077l-34.765 234.695 31.8 15.727 40.871-275.915z" fill="#F2A307" /><path d="M514.73 613.584l-40.871 275.915 31.801 15.726 46.976-317.133z" fill="#F1A307" /><path d="M552.636 588.092L505.66 905.225l31.8 15.726 53.081-358.352z" fill="#F0A407" /><path d="M590.541 562.599L537.46 920.951l31.8 15.727 59.187-399.572z" fill="#EFA407" /><path d="M628.447 537.106L569.26 936.678l31.8 15.726 65.293-440.791z" fill="#EEA507" /><path d="M666.353 511.613L601.06 952.404l1.176 0.581a445.967 445.967 0 0 0 34.112-8.401l67.911-458.463-37.906 25.492z" fill="#EDA607" /><path d="M704.259 486.12l-67.911 458.463a445.82 445.82 0 0 0 35.908-12.007l69.908-471.949-37.905 25.493z" fill="#ECA607" /><path d="M742.164 460.628l-69.908 471.949a446.987 446.987 0 0 0 36.475-15.833l71.339-481.608-37.906 25.492z" fill="#EBA707" /><path d="M780.07 435.135l-71.339 481.608a449.04 449.04 0 0 0 37.142-20.338l72.103-486.763-37.906 25.493z" fill="#EAA707" /><path d="M817.976 409.643l-72.103 486.762a451.154 451.154 0 0 0 37.97-25.929l72.038-486.328-37.905 25.495z" fill="#E9A807" /><path d="M857.142 383.302l-1.26 0.847-72.038 486.328a453.286 453.286 0 0 0 39.078-33.411l64.82-437.601-30.6-16.163z" fill="#E8A907" /><path d="M887.743 399.465l-64.82 437.601a453.626 453.626 0 0 0 40.728-44.543l55.746-376.339-31.654-16.719z" fill="#E6A906" /><path d="M919.396 416.184L863.65 792.523a451.378 451.378 0 0 0 43.936-66.202l43.463-293.417-31.653-16.72z" fill="#E5AA06" /><path d="M951.049 432.903L907.587 726.32c34.584-63.661 54.253-136.549 54.253-213.951a450.63 450.63 0 0 0-6.654-77.281l-4.137-2.185z" fill="#E4AA06" /><path d="M167.176 383.066l2.213-6.244c5.691-16.992 20.549-28.372 38.648-29.638 16.519-1.186 33.037 8.456 40.782 23.631 7.904 15.491 5.692 33.747-5.769 47.341-1.343 1.501-2.687 3.003-4.188 4.741 32.009 19.6 63.859 38.965 95.552 58.485 12.013 7.429 24.105 14.858 36.118 22.05 6.876 4.032 12.171 2.846 15.885-3.873a261662.551 261662.551 0 0 0 109.62-199.956c-15.885-8.062-26.161-20.391-27.109-38.648-0.633-12.804 3.872-23.79 12.961-32.72 18.02-17.546 47.579-15.886 63.386 3.556 18.179 22.288 11.618 48.369-17.229 67.97 9.406 17.229 18.89 34.538 28.453 51.768 26.477 48.212 52.795 96.263 79.271 144.474 6.086 11.144 9.959 12.171 20.866 5.692 40.94-24.975 81.801-50.108 122.74-75.162 1.896-1.186 3.714-2.371 5.927-3.714-8.456-8.457-13.831-18.02-14.463-29.797-1.185-22.05 13.989-41.335 35.249-44.97 22.13-3.873 42.679 8.773 49.239 30.192 0.474 1.66 1.186 3.398 1.818 5.058v14.858c-6.955 22.288-21.26 35.25-45.841 35.408-0.869 2.529-1.818 5.058-2.529 7.587-23.948 82.116-47.895 164.391-71.843 246.506-3.081 10.75-6.876 13.515-17.704 13.515H305.643c-11.618 0-15.175-2.687-18.336-13.515-19.523-66.626-38.806-133.489-58.328-200.113-5.216-18.02-10.591-36.04-15.886-54.139-18.336 0-32.167-7.271-40.782-23.078-2.055-3.872-3.398-8.219-5.058-12.329-0.077-5.136-0.077-10.036-0.077-14.936zM512 744.172h193.239c17.229 0 30.982 12.171 32.878 28.532 1.897 16.518-8.93 31.535-25.607 35.249-2.371 0.633-4.901 0.711-7.271 0.711H318.604c-14.7 0-27.109-8.773-31.376-22.05-4.426-13.278-0.317-28.295 11.46-35.882 6.085-3.872 14.147-6.56 21.26-6.56 64.097-0.316 128.114 0 192.052 0z" fill="#FFFFFF" /></svg>