<?xml version="1.0" standalone="no"?><!DOCTYPE svg PUBLIC "-//W3C//DTD SVG 1.1//EN" "http://www.w3.org/Graphics/SVG/1.1/DTD/svg11.dtd"><svg t="1521983746048" class="icon" style="" viewBox="0 0 1024 1024" version="1.1" xmlns="http://www.w3.org/2000/svg" p-id="4269" xmlns:xlink="http://www.w3.org/1999/xlink" width="200" height="200"><defs><style type="text/css"></style></defs><path d="M190.656 313.12a95.744 95.744 0 0 0 18.464 108.992 95.744 95.744 0 0 0 108.992 18.464L190.656 313.12z" fill="#EACA44" p-id="4270"></path><path d="M458.016 173.216A256 256 0 0 0 96 173.216l362.016 362.016a255.936 255.936 0 0 0 0-362.016z" fill="#EF4D4D" p-id="4271"></path><path d="M458.016 173.216a253.664 253.664 0 0 1 66.08 114.912l69.696-69.664a128 128 0 0 0-181.024-181.024l-69.664 69.696a253.664 253.664 0 0 1 114.912 66.08z" fill="#EF4D4D" p-id="4272"></path><path d="M368.736 81.504l-25.632 25.632v0.032a253.984 253.984 0 0 1 58.88 23.84c1.696 0.96 3.328 1.984 4.992 2.976 7.168 4.256 14.112 8.832 20.928 13.856 2.112 1.536 4.288 3.04 6.368 4.672 8.224 6.432 16.192 13.216 23.712 20.736s14.304 15.488 20.704 23.712c1.664 2.08 3.168 4.256 4.672 6.368 4.992 6.816 9.6 13.792 13.856 20.928 0.96 1.696 1.984 3.328 2.976 4.992 10.496 18.752 18.432 38.528 23.84 58.88h0.032l25.632-25.632a286.24 286.24 0 0 0-69.088-111.904 285.088 285.088 0 0 0-111.872-69.088z" fill="" p-id="4273"></path><path d="M475.552 515.872l0.16-0.192c52.992-65.056 68.544-149.888 47.968-227.104l70.496-70.528a127.68 127.68 0 0 0 3.648-176.576 143.296 143.296 0 0 1-40.192 122.592s-49.632 50.624-59.936 60.896c-0.032 90.048-38.816 173.632-107.552 242.368l67.872 67.872a242.56 242.56 0 0 0 17.536-19.328z" fill="" p-id="4274"></path><path d="M512 863.968a160 160 0 0 0-160 160h320a160 160 0 0 0-160-160z" fill="#DAE2E5" p-id="4275"></path><path d="M880 527.968m-48 0a48 48 0 1 0 96 0 48 48 0 1 0-96 0Z" fill="#434854" p-id="4276"></path><path d="M863.424 449.728l-229.76-229.76a160 160 0 0 1-17.248 21.12l-26.048 26.048 220.736 220.736a80 80 0 0 1 52.32-38.144zM810.816 567.456l-296.704 296.704a158.784 158.784 0 0 1 71.84 18.656l276.832-276.832a79.744 79.744 0 0 1-51.968-38.528z" fill="#434854" p-id="4277"></path><path d="M514.08 864.192l0.32 0.032c8 0.128 15.712 1.024 23.328 2.336 4.32 0.704 8.512 1.536 12.672 2.592 2.688 0.672 5.312 1.632 7.936 2.432a159.36 159.36 0 0 1 27.584 11.264l23.872-23.872a190.304 190.304 0 0 0-66.304-24.192l-29.408 29.408z" fill="" p-id="4278"></path></svg>