<svg class="icon" viewBox="0 0 1024 1024" xmlns="http://www.w3.org/2000/svg" width="200" height="200"><defs><style/></defs><path d="M983.527 423.045l28.416-125.614-156.505 73.3 62.24 81.203-214.854 94.305-126.699-99.441 59.218-100.647-123.339-209.654-123.347 209.654 59.218 100.647-126.699 99.425-214.846-94.289 62.232-81.202-156.505-73.3 28.416 125.613-.121-.065 28.045 123.958 65.472 340.565h756.246l65.431-340.308 28.102-124.215z" fill="#FFF80D"/><path d="M997.385 361.761l-109.505 51.3 29.798 38.873v57.522L702.824 603.76l-126.699-99.442v-57.521l42.297-71.886-106.418-180.893-106.426 180.893 42.297 71.886v57.521l-126.699 99.434-214.846-94.297v-57.522l29.79-38.873-109.497-51.3 13.85 61.284-.121-.065 28.045 123.958 65.472 340.565h756.246l65.431-340.308 28.102-124.215-.12.065z" fill="#FFD00B"/><path d="M385.514 696.007a126.482 126.482 0 1 0 252.964 0 126.482 126.482 0 1 0-252.964 0z" fill="#FFAF10"/><path d="M638.486 696.007c0 53.52-56.638 96.893-126.49 96.893-69.844 0-126.474-43.374-126.474-96.893 0-53.462 56.63-96.893 126.474-96.893 69.852 0 126.49 43.431 126.49 96.893z" fill="#FF860D"/><path d="M385.514 696.007c0 69.86 56.63 126.498 126.474 126.498 69.852 0 126.49-56.637 126.49-126.498H385.514z" fill="#FFF9DE"/><path d="M511.988 792.9c69.852 0 126.49-43.374 126.49-96.893H385.514c0 53.52 56.63 96.893 126.474 96.893z" fill="#FFF3C2"/><path d="M1019.499 288.042a12.073 12.073 0 0 0-12.677-1.527l-156.496 73.3a12.041 12.041 0 0 0-4.453 18.256l52.891 69-194.18 85.23-112.72-88.477 53.872-91.564a12.057 12.057 0 0 0 0-12.226L522.397 130.38a12.065 12.065 0 0 0-20.786 0L378.264 340.034a12.057 12.057 0 0 0 0 12.226l53.872 91.564-112.728 88.46-194.164-85.213 52.883-69a12.041 12.041 0 0 0-4.453-18.255l-156.496-73.3A12.041 12.041 0 0 0 .305 300.1l28.038 123.95c.048.53.137 1.069.249 1.6l27.965 123.57 65.48 340.564a12.057 12.057 0 0 0 11.84 9.783h756.246a12.057 12.057 0 0 0 11.84-9.783l65.351-339.92 28.102-124.216c.12-.53.201-1.069.25-1.6l28.037-123.95a12.057 12.057 0 0 0-4.204-12.057zM625.777 708.065c-6.044 57.457-54.764 102.383-113.79 102.383-59.016 0-107.728-44.926-113.772-102.383h227.562zM398.223 683.95c6.044-57.45 54.756-102.367 113.773-102.367 59.025 0 107.737 44.926 113.79 102.367H398.222zm573.544-263.566a12.218 12.218 0 0 0-.249 1.584L943.714 544.92l-63.55 330.524h-356.11v-41.493c70.752-6.141 126.481-65.616 126.481-137.945 0-76.395-62.152-138.539-138.547-138.539-76.387 0-138.531 62.144-138.531 138.54 0 72.336 55.729 131.81 126.482 137.944v41.493H143.836L80.157 544.278 52.482 421.984a13.761 13.761 0 0 0-.25-1.6L29.26 318.797l120.614 56.493-53.109 69.305a12.073 12.073 0 0 0 4.727 18.376l214.854 94.296a12.073 12.073 0 0 0 12.283-1.559l126.698-99.425a12.057 12.057 0 0 0 2.95-15.602l-55.624-94.538 109.36-185.876L621.356 346.15l-55.624 94.538a12.057 12.057 0 0 0 2.95 15.602l126.698 99.441a12.057 12.057 0 0 0 12.283 1.551l214.854-94.304a12.057 12.057 0 0 0 4.727-18.376l-53.117-69.305 120.614-56.493-22.974 101.58z" fill="#33363A"/><path d="M351.77 834.563h-18.938a12.057 12.057 0 0 1 0-24.115h18.938a12.057 12.057 0 0 1 0 24.115zm-58.47 0h-18.947a12.057 12.057 0 0 1 0-24.115H293.3a12.057 12.057 0 0 1 0 24.115zm-58.47 0H126.45a12.057 12.057 0 0 1 0-24.115h108.38a12.057 12.057 0 0 1 0 24.115zm152.252.008c-3.143 0-6.27-1.286-8.529-3.537a12.202 12.202 0 0 1-3.529-8.52c0-3.216 1.286-6.27 3.53-8.53 4.509-4.5 12.547-4.5 17.04 0 2.25 2.251 3.537 5.394 3.537 8.53s-1.286 6.27-3.537 8.52a11.999 11.999 0 0 1-8.512 3.537zm304.094-.008h-18.938a12.057 12.057 0 0 1 0-24.115h18.938a12.057 12.057 0 0 1 0 24.115zm58.47 0h-18.945a12.057 12.057 0 0 1 0-24.115h18.946a12.057 12.057 0 0 1 0 24.115zm147.904 0H789.17a12.057 12.057 0 0 1 0-24.115h108.38a12.057 12.057 0 0 1 0 24.115zm-260.632.008c-3.143 0-6.27-1.286-8.528-3.537a12.202 12.202 0 0 1-3.529-8.52c0-3.216 1.286-6.27 3.529-8.53 4.51-4.5 12.547-4.5 17.04 0 2.252 2.251 3.538 5.394 3.538 8.53s-1.286 6.27-3.537 8.52-5.386 3.537-8.513 3.537z" fill="#33363A"/><path d="M470.181 710.508a41.815 41.815 0 1 0 83.63 0 41.815 41.815 0 1 0-83.63 0z" fill="#A7BBC1"/><path d="M470.181 696.28a41.815 41.815 0 1 0 83.63 0 41.815 41.815 0 1 0-83.63 0z" fill="#FFF"/><path d="M482.423 725.845a41.815 41.815 0 1 1 59.146-59.129" fill="#D8E5EA"/><path d="M511.996 750.161a53.495 53.495 0 0 1-38.101-15.795c-10.177-10.168-15.78-23.689-15.78-38.085s5.603-27.933 15.78-38.093c21.004-21.004 55.19-20.996 76.194-.009a53.503 53.503 0 0 1 15.787 38.11 53.438 53.438 0 0 1-15.795 38.085 53.462 53.462 0 0 1-38.085 15.787zm0-83.622c-7.62 0-15.249 2.894-21.052 8.698-5.619 5.618-8.714 13.094-8.714 21.044s3.095 15.425 8.714 21.028c11.253 11.27 30.867 11.261 42.088.008 5.627-5.619 8.73-13.086 8.73-21.036s-3.095-15.426-8.722-21.036v-.008a29.629 29.629 0 0 0-21.044-8.698z" fill="#33363A"/></svg>