<?xml version="1.0" standalone="no"?><!DOCTYPE svg PUBLIC "-//W3C//DTD SVG 1.1//EN" "http://www.w3.org/Graphics/SVG/1.1/DTD/svg11.dtd"><svg t="1519373165504" class="icon" style="" viewBox="0 0 1024 1024" version="1.1" xmlns="http://www.w3.org/2000/svg" p-id="2019" xmlns:xlink="http://www.w3.org/1999/xlink" width="200" height="200"><defs><style type="text/css"></style></defs><path d="M420.060403 217.823053c-182.56058 0-331.092237 148.531656-331.092236 331.092237 0 182.555982 148.531656 331.092237 331.092236 331.092236 182.555982 0 331.092237-148.536255 331.092237-331.092236 0-182.56058-148.536255-331.092237-331.092237-331.092237zM176.624836 383.760044c11.229545 6.681625 41.657841 25.595269 64.48941 47.723267 15.947609 15.464767 23.296018 26.749494 23.130472 35.477453-0.119561 7.417386-5.835501 16.255709-16.936288 26.262053-15.211849 13.70354-21.718731 30.984715-18.283649 48.679755 6.860967 35.477453 50.997401 63.358178 89.99271 77.636531 26.317234 9.610872 37.23868 17.244387 41.639447 21.212896-27.002411 10.38342-129.079987 6.897755-221.358153-3.646613a292.841886 292.841886 0 0 1-13.542592-88.199293c0-61.178488 18.789484-118.01139 50.868643-165.146049z m-21.65895 292.129119c38.452684 4.078872 87.785428 8.139351 131.89887 8.13935 46.757581 0 87.587692-4.566314 103.176618-18.504377 6.681625-5.964259 10.29145-13.88748 10.208677-22.293544-0.381676-29.871877-39.3264-47.548524-68.586676-58.253839-39.731068-14.512876-63.928393-36.645473-66.51735-50.059307-0.413865-2.101516-1.365755-7.026513 6.773595-14.351929 19.253933-17.354751 28.772835-34.654321 29.117723-52.919576 0.464449-25.365344-17.08344-45.860873-34.309433-62.567235-23.153464-22.436098-52.330967-41.38653-67.165739-50.436384 53.98183-61.183086 132.694411-100.03584 220.498232-100.035841 68.365948 0 131.181503 23.636307 181.208621 62.884532-4.400768 16.044178-20.173634 56.763925-70.701988 79.646077-63.160443 28.60269-74.546337 33.753014-72.320661 80.942855 0.252918 5.371052 0.542623 11.606622 0.611601 18.950432 0.395471 42.375208 27.912915 58.382598 52.202209 72.500003 15.409585 8.967081 31.343398 18.233066 44.490519 34.829064 22.633833 28.561304 24.036377 51.300903 25.526292 75.355673 0.685177 11.100787 1.402544 22.578651 4.382374 34.038122 6.161994 23.659299 21.429025 41.547477 32.713752 52.165421-52.363157 47.833631-121.768367 77.296242-198.112719 77.296242-116.760597 0-217.568986-68.531494-265.099116-167.325739z m488.839293 63.712263c-7.725486-7.164468-18.697514-19.543639-22.744197-35.11877-2.078523-8.005994-2.639541-16.830522-3.264937-27.030002-1.600279-25.995339-3.614424-58.327416-33.394331-95.938574-17.474312-22.045225-38.208964-34.097902-54.860144-43.777752-23.958202-13.938063-33.697832-20.426552-33.89097-41.064634a515.510612 515.510612 0 0 0-0.652987-20.316187c-1.057656-22.256756-1.057656-22.256756 50.730688-45.695328 50.942219-23.066092 74.527943-60.714039 85.178076-86.635802 51.55382 53.043735 83.458236 125.272427 83.458237 204.881716 0 72.734526-26.675918 139.270271-70.559435 190.699931z" fill="#3BABB7" p-id="2020"></path><path d="M630.906377 344.028976c-10.650134 25.921763-34.235857 63.569709-85.178076 86.635802-51.788344 23.438571-51.788344 23.438571-50.730688 45.695327 0.27591 5.766523 0.579411 12.448148 0.648389 20.316188 0.197736 20.638083 9.932767 27.126571 33.895568 41.064634 16.65118 9.679849 37.385832 21.732527 54.860144 43.777751 29.779907 37.615757 31.794052 69.943235 33.394331 95.938574 0.625396 10.204079 1.186414 19.024008 3.264937 27.034601 4.046683 15.570532 15.018712 27.949703 22.744197 35.114171 43.883517-51.425062 70.559434-117.960806 70.559435-190.690734 0-79.613887-31.904416-151.842579-83.458237-204.886314zM360.656938 640.756597c-4.400768-3.968508-15.322213-11.602024-41.639447-21.212895-38.995308-14.278353-83.131742-42.159078-89.99271-77.636531-3.435082-17.695041 3.0718-34.971617 18.283649-48.679756 11.100787-10.006343 16.816727-18.844666 16.940886-26.257454 0.160948-8.737156-7.187461-20.012686-23.13507-35.482051-22.831569-22.127998-53.259865-41.041642-64.48941-47.723267-32.079159 47.134659-50.868643 103.967561-50.868643 165.150647 0 30.718002 4.759451 60.332363 13.542592 88.199293 92.273567 10.53977 194.355741 14.025435 221.358153 3.642014z" fill="#50CCD3" p-id="2021"></path><path d="M585.45937 713.757837c-2.97983-11.45947-3.697197-22.937334-4.382374-34.038121-1.489915-24.050172-2.892459-46.794369-25.521693-75.355674-13.151719-16.600597-29.085533-25.866581-44.495118-34.829063-24.284696-14.117405-51.806738-30.120197-52.202209-72.500003a492.35255 492.35255 0 0 0-0.611601-18.945834c-2.225676-47.189841 9.160219-52.349361 72.320661-80.942855 50.528354-22.886751 66.30122-63.606497 70.701988-79.646076-50.031716-39.252824-112.847271-62.889131-181.208621-62.889131-87.803822 0-166.516402 38.852754-220.498232 100.03584 14.83937 9.049854 44.007676 28.004885 67.165739 50.436384 17.225993 16.706362 34.773882 37.201892 34.304834 62.567236-0.340289 18.265255-9.859191 35.564824-29.113124 52.914977-8.139351 7.330014-7.187461 12.255011-6.773595 14.356527 2.588957 13.413834 26.781683 35.54643 66.51735 50.059307 29.260276 10.705316 68.205001 28.381962 68.582078 58.25384 0.09197 8.406064-3.522454 16.329285-10.204079 22.293544-15.588926 13.938063-56.423635 18.499779-103.176618 18.499778-44.118041 0-93.441587-4.060478-131.903469-8.13935C202.491417 774.688006 303.299806 843.2195 420.060403 843.2195c76.339753 0 145.749562-29.458012 198.112719-77.291643-11.284727-10.617944-26.551758-28.51072-32.713752-52.165421z" fill="#50CCD3" p-id="2022"></path><path d="M146.375882 246.057863a18.334233 18.334233 0 0 0 13.004567 5.389446 18.389415 18.389415 0 0 0 13.004567-31.39858l-39.013702-39.018301 39.013702-39.013701a18.389415 18.389415 0 1 0-26.009134-26.009135l-39.013702 39.013702-39.018301-39.013702a18.389415 18.389415 0 1 0-26.009134 26.009135l39.013702 39.0183-39.013702 39.013702a18.389415 18.389415 0 1 0 26.009134 26.009134l39.018301-39.013701 39.013702 39.013701zM649.337179 135.693785A18.338831 18.338831 0 0 0 662.341746 141.08323c4.704269 0 9.413136-1.793416 13.004567-5.389445l39.018301-39.013702 39.013701 39.013702a18.334233 18.334233 0 0 0 13.004568 5.389445 18.389415 18.389415 0 0 0 13.004567-31.39858l-39.013702-39.0183 39.013702-39.013702a18.389415 18.389415 0 1 0-26.009135-26.009135l-39.013701 39.013702-39.018301-39.013702a18.389415 18.389415 0 1 0-26.009134 26.009135l39.013702 39.013702-39.013702 39.0183a18.389415 18.389415 0 0 0 0 26.009135zM942.707893 346.581145l39.013702-39.0183a18.389415 18.389415 0 1 0-26.009135-26.009135l-39.013702 39.013702-39.0183-39.013702a18.389415 18.389415 0 1 0-26.009135 26.009135l39.013702 39.013702-39.013702 39.0183a18.389415 18.389415 0 1 0 26.009135 26.009135l39.0183-39.013702 39.013702 39.013702a18.334233 18.334233 0 0 0 13.004567 5.389446 18.389415 18.389415 0 0 0 13.004568-31.398581l-39.013702-39.013702zM797.781463 888.556144a18.389415 18.389415 0 0 0-26.009134 0l-39.013702 39.013702-39.018301-39.013702a18.389415 18.389415 0 1 0-26.009134 26.009135l39.013702 39.013702-39.013702 39.0183a18.389415 18.389415 0 1 0 26.009134 26.009134l39.018301-39.013701 39.013702 39.013701a18.334233 18.334233 0 0 0 13.004567 5.389446 18.389415 18.389415 0 0 0 13.004567-31.39858l-39.013702-39.0183 39.013702-39.013702a18.389415 18.389415 0 0 0 0-26.009135z" fill="#746DE0" p-id="2023"></path></svg>