<?xml version="1.0" standalone="no"?><!DOCTYPE svg PUBLIC "-//W3C//DTD SVG 1.1//EN" "http://www.w3.org/Graphics/SVG/1.1/DTD/svg11.dtd"><svg t="1525930872860" class="icon" style="" viewBox="0 0 1024 1024" version="1.1" xmlns="http://www.w3.org/2000/svg" p-id="2978" xmlns:xlink="http://www.w3.org/1999/xlink" width="200" height="200"><defs><style type="text/css"></style></defs><path d="M64 99.1232h896c17.7152 0 31.9488 14.336 31.9488 31.9488v768c0 17.7152-14.336 31.9488-31.9488 31.9488h-896c-17.7152 0-31.9488-14.336-31.9488-31.9488V131.072c-0.1024-17.7152 14.2336-31.9488 31.9488-31.9488z" fill="#F0EEE2" p-id="2979"></path><path d="M159.9488 803.0208h384V355.1232h-384v447.8976z m512-447.8976v320h192V355.1232H671.9488z" fill="#BBAA9C" p-id="2980"></path><path d="M927.9488 371.0976h-128c-8.8064 0-15.9744 7.168-15.9744 15.9744s7.168 15.9744 15.9744 15.9744h128c8.8064 0 15.9744-7.168 15.9744-15.9744s-7.0656-15.9744-15.9744-15.9744zM79.9744 387.072H31.9488c-8.8064 0.2048-15.7696 7.5776-15.5648 16.384 0.2048 8.4992 7.0656 15.36 15.5648 15.5648h48.0256c8.8064-0.2048 15.7696-7.5776 15.5648-16.384-0.2048-8.4992-6.9632-15.36-15.5648-15.5648z m112.0256 335.9744h-79.9744c-8.8064 0-15.9744 7.168-15.9744 15.9744s7.168 15.9744 15.9744 15.9744h79.9744c8.8064 0 15.9744-7.168 15.9744-15.9744s-7.168-15.9744-15.9744-15.9744z m463.9744-432.0256c0-8.8064-7.168-15.9744-15.9744-15.9744h-15.9744c-8.8064 0-15.9744 7.168-15.9744 15.9744s7.168 15.9744 15.9744 15.9744H640c8.8064 0.1024 15.9744-7.0656 15.9744-15.9744 0 0.1024 0 0.1024 0 0zM463.9744 483.1232c0-8.8064-7.168-15.9744-15.9744-15.9744h-96.0512c-8.8064 0.2048-15.7696 7.5776-15.5648 16.384 0.2048 8.4992 7.0656 15.36 15.5648 15.5648h96.0512c8.8064 0 15.9744-7.168 15.9744-15.9744z m400.0768 303.9232h-31.9488c-8.8064 0-15.9744 7.168-15.9744 15.9744s7.168 15.9744 15.9744 15.9744h31.9488c8.8064 0 15.9744-7.168 15.9744-15.9744s-7.168-15.9744-15.9744-15.9744zM496.0256 675.0208h-64c-8.8064 0.2048-15.7696 7.5776-15.5648 16.384 0.2048 8.4992 7.0656 15.36 15.5648 15.5648h64c8.8064-0.2048 15.7696-7.5776 15.5648-16.384-0.2048-8.3968-7.0656-15.2576-15.5648-15.5648z m207.9744-63.8976h-48.0256c-8.8064 0.2048-15.7696 7.5776-15.5648 16.384 0.2048 8.4992 7.0656 15.36 15.5648 15.5648h48.0256c8.8064-0.2048 15.7696-7.5776 15.5648-16.384-0.2048-8.4992-7.0656-15.36-15.5648-15.5648z m-415.9488-64.1024c-8.8064 0-15.9744 7.168-15.9744 15.9744s7.168 15.9744 15.9744 15.9744 15.9744-7.168 15.9744-15.9744-7.168-15.9744-15.9744-15.9744z" fill="#D8D5BA" p-id="2981"></path><path d="M896 323.072H640v384h256v-384z m-31.9488 351.9488H671.9488V355.1232h192v319.8976zM240.0256 195.072c8.8064 0 15.9744-7.168 15.9744-15.9744s-7.168-15.9744-15.9744-15.9744-15.9744 7.168-15.9744 15.9744 7.168 15.9744 15.9744 15.9744z m719.9744-128h-896C28.672 67.072 0 95.744 0 131.072v768c0 35.328 28.672 64 64 64h896c35.328 0 64-28.672 64-64V131.072c0-35.328-28.672-64-64-64z m0 832h-896V259.072h896v640z m0-671.9488h-896V131.072h896v96.0512z m-384 95.9488H128v512h448v-512z m-32.0512 479.9488h-384V355.1232h384v447.8976zM176.0256 195.072c8.8064 0 15.9744-7.168 15.9744-15.9744s-7.168-15.9744-15.9744-15.9744-15.9744 7.168-15.9744 15.9744 7.168 15.9744 15.9744 15.9744z m-64 0c8.8064 0 15.9744-7.168 15.9744-15.9744s-7.168-15.9744-15.9744-15.9744-15.9744 7.168-15.9744 15.9744 7.168 15.9744 15.9744 15.9744z m223.9488 0h480.0512c8.8064-0.2048 15.7696-7.5776 15.5648-16.384-0.2048-8.4992-7.0656-15.36-15.5648-15.5648H335.9744c-8.8064 0.2048-15.7696 7.5776-15.5648 16.384 0.2048 8.4992 7.0656 15.36 15.5648 15.5648z m544.0512 0h31.9488c8.8064-0.2048 15.7696-7.5776 15.5648-16.384-0.2048-8.4992-7.0656-15.36-15.5648-15.5648h-31.9488c-8.8064 0.2048-15.7696 7.5776-15.5648 16.384 0.2048 8.4992 7.0656 15.36 15.5648 15.5648z" fill="#5F4E56" p-id="2982"></path></svg>